<?xml version="1.0" encoding="UTF-8"?>
<svg id="Camada_1" data-name="Camada 1" xmlns="http://www.w3.org/2000/svg" viewBox="0 0 1080 472">
  <defs>
    <style>
      .cls-1 {
        fill: none;
        stroke-width: 5px;
      }

      .cls-1, .cls-2, .cls-3 {
        stroke-linecap: round;
        stroke-linejoin: round;
      }

      .cls-1, .cls-2, .cls-3, .cls-4 {
        stroke: #000;
      }

      .cls-2 {
        fill: red;
      }

      .cls-2, .cls-3 {
        stroke-width: 8px;
      }

      .cls-3 {
        fill: #ff6700;
      }

      .cls-5 {
        fill: #81cfd3;
      }

      .cls-4 {
        fill: #62894c;
        stroke-miterlimit: 10;
        stroke-width: 6px;
      }
    </style>
  </defs>
  <g id="Camada_3" data-name="Camada 3">
    <path d="m58.86,163.93c2.44-22.35.2-46.74-.81-71.53,0-2.84-.2-5.89.2-8.54.81-8.53,3.46-11.79,11.58-11.18,20.93,1.22,41.66.81,62.59.41,10.97-.2,15.24,4.47,15.44,15.65.2,3.45,0,6.71-.61,9.96-2.24,11.58-6.3,15.04-17.68,13.01-6.71-1.02-13.21-.61-19.92-.81-2.64-.2-5.69.41-8.13,1.42-4.06,1.63-6.1,4.67-5.08,9.14,1.02,3.86,3.66,5.28,7.32,5.28,6.3,0,12.4-.41,18.49-1.02,6.3-.81,14.22-3.25,17.88,4.47,3.86,8.33,2.84,17.68-.41,26.21-1.63,4.06-6.5,5.08-10.97,5.49-7.11.61-14.22-1.22-21.34-1.42-9.35-.41-12.19,2.84-11.38,11.58.61,5.28,2.84,7.93,8.13,7.52,9.75-.2,19.1-.41,28.65-.41,11.79,0,14.23,2.44,14.43,14.02.61,21.74-.61,23.17-22.56,23.17-16.66,0-33.33,0-49.79-.2-13.61,0-16.05-2.24-16.05-15.44v-36.78Z"/>
    <path d="m224.47,196.85c-6.91,0-11.18,0-15.04.2-8.33.2-14.63,2.64-18.09,12.4,0,9.96-2.84,7.31-13.01,7.93-6.91,0-25.81,1.22-24.39-2.24,0-4.27,1.63-9.35,2.44-11.38,9.96-20.52,17.07-41.86,25.81-63.2,6.3-14.83,10.57-32.31,15.44-47.75,4.88-18.7,10.36-21.74,31.29-20.32,6.3.81,8.53,7.52,11.38,12.4,4.06,8.33,5.28,15.44,7.52,23.37,8.53,27.84,18.7,55.27,29.67,82.3,1.22,3.25,2.24,6.5,3.25,9.75,4.27,15.65,1.83,18.29-13.82,17.68-12.4.81-15.85,1.02-17.48-11.99-.81-5.89-4.67-7.93-9.75-8.33-6.1-.2-11.79-.81-15.24-.81Zm-4.06-30.28c8.33-.2,11.18-1.83,10.97-6.1.2-6.71-3.01-24.87-7.88-24.67-5.69-.2-12.64,17.35-12.44,25.28-.2,7.72,6.3,4.47,9.35,5.49Z"/>
    <path d="m332.37,177.34c-2.64,8.33,0,16.46-.41,24.18-.61,12.8-.61,16.46-15.85,16.46-.81.2-1.83.2-2.84.2-24.18,0-23.37-1.62-22.76-23.37.81-33.33,1.02-66.65-1.22-99.98-.2-3.25-.81-6.71-.41-9.96.41-7.11,4.27-11.38,11.38-11.58,19.71-.61,38.81-2.03,59.34,1.22,16.05,3.66,24.79,15.44,27.84,29.67,3.45,16.87,2.24,34.55-13.61,46.54-6.3,5.08-5.28,9.35-1.63,15.85,7.32,11.99,17.48,22.35,22.15,36.17,4.67,13.01,3.45,16.26-9.75,15.24-33.73,0-26.01,2.44-41.66-26.82-2.44-4.67-3.25-11.18-10.57-13.82Zm3.33-65.58c-3.45,1.22-4.96,6.65-4.35,12.74.61,4.67-1.02,10.97,5.69,12.8,3.86,1.22,14.29-8.69,12.68-13.52-2-6.01-7.93-11.41-14.02-12.02Z"/>
    <path d="m452.45,74.72c11.38,0,22.96-.2,34.34,0,11.38.2,13.61,2.44,14.02,14.63.2,4.67.2,9.35-.41,14.02-1.22,11.58-3.45,13.21-15.24,14.02-10.16.61-12.4,2.84-12.19,13.01.41,22.96-1.22,45.72.81,68.48,1.62,14.43-2.84,18.7-17.07,19.3h-3.05c-18.29.61-20.93-1.62-21.13-19.51-.2-22.35.2-44.5.2-66.65-.2-12.4-.81-13.01-12.4-13.82-13.62-.81-15.65-2.64-16.87-15.85-.2-3.66-.2-7.52-.41-11.38-.81-12.4,2.44-16.05,15.04-16.26,11.38-.2,22.96,0,34.34,0Z"/>
    <path d="m510.16,159.66c-.41-20.52,1.62-41.25-2.64-61.57-.61-3.66-.41-7.52.2-11.38,1.02-6.5,4.06-11.58,11.79-11.79,7.11-.2,14.43-1.22,21.54-.41,8.53.61,11.38,4.06,11.58,12.8.41,8.53-.61,17.07-1.63,25.6-1.22,11.18.41,12.8,10.97,13.41,8.13.2,16.05-.61,24.18-.61,6.09-.2,8.33-2.44,7.92-8.74-.61-9.35-.81-19.1-.81-28.65-.2-10.97,2.23-13.41,13.01-14.02,4.88-.61,9.55-.41,14.22-.41,13.21.61,18.7,5.89,17.68,18.49-3.25,36.78-2.44,73.36-2.44,110.14,0,13.41-1.02,14.63-14.02,16.46-1.02,0-1.83.2-2.64.2-21.74,1.83-25.2-1.63-24.18-23.37.41-7.31,1.02-14.43,1.02-21.34,0-5.69-2.24-8.94-8.74-8.53-8.53.41-17.07.2-25.6.61-9.96.61-11.58,2.03-11.58,11.99,0,9.35,1.02,19.1,1.02,28.45.2,9.55-1.22,10.57-10.16,12.19-1.42.2-3.05.2-4.27.41-25.2,1.02-26.62-.41-26.42-25.61v-34.34Z"/>
    <path d="m65.67,340.65c-.41-20.68,1.64-41.56-2.66-62.04-.61-3.68-.41-7.58.2-11.47,1.02-6.55,4.1-11.67,11.87-11.87,7.17-.21,14.54-1.23,21.7-.41,8.6.61,11.47,4.1,11.67,12.9.41,8.6-.61,17.2-1.64,25.8-1.23,11.26.41,12.9,11.06,13.51,8.19.21,16.17-.61,24.36-.61,6.14-.2,8.39-2.46,7.98-8.8-.61-9.42-.82-19.25-.82-28.87-.2-11.05,2.25-13.51,13.1-14.13,4.91-.61,9.62-.41,14.33-.41,13.31.61,18.84,5.94,17.81,18.63-3.28,37.06-2.46,73.91-2.46,110.97,0,13.51-1.02,14.74-14.13,16.58-1.02,0-1.84.21-2.66.21-21.91,1.84-25.39-1.64-24.36-23.55.41-7.37,1.02-14.54,1.02-21.5,0-5.73-2.25-9.01-8.8-8.6-8.6.41-17.2.21-25.8.61-10.03.61-11.67,2.05-11.67,12.08,0,9.42,1.02,19.25,1.02,28.66.2,9.62-1.23,10.65-10.24,12.28-1.43.21-3.07.21-4.3.41-25.39,1.02-26.82-.41-26.62-25.8v-34.6Z"/>
    <path d="m342.48,324.27c1.64,22.11-5.94,40.54-21.5,55.89-19.25,19.25-43,21.5-67.97,16.38-30.51-6.55-49.96-31.12-51.8-62.44-.82-14.13.82-27.44,5.94-40.74,10.44-26.82,31.33-37.47,57.53-40.95,37.26-4.91,61.83,18.02,74.73,46.27,3.69,8.19,2.46,16.99,3.07,25.59Zm-70.43-29.48c-19.45,1.02-32.55,11.67-32.96,33.99-.41,16.79,15.97,33.17,32.14,32.35,22.73-1.02,32.35-15.76,33.78-35.42,1.23-16.99-15.36-30.91-32.96-30.91Z"/>
    <path d="m490.3,324.27c1.64,22.11-5.94,40.54-21.5,55.89-19.25,19.25-43,21.5-67.97,16.38-30.51-6.55-49.96-31.12-51.8-62.44-.82-14.13.82-27.44,5.94-40.74,10.44-26.82,31.33-37.47,57.53-40.95,37.26-4.91,61.83,18.02,74.73,46.27,3.69,8.19,2.46,16.99,3.07,25.59Zm-70.43-29.48c-19.45,1.02-32.55,11.67-32.96,33.99-.41,16.79,15.97,33.17,32.14,32.35,22.73-1.02,32.35-15.76,33.78-35.42,1.23-16.99-15.36-30.91-32.96-30.91Z"/>
    <path d="m536.57,349.25c-3.69,9.42-.82,18.02-1.84,26.41-.61,4.91,0,9.62-.21,14.54-.2,4.5-2.66,6.96-7.17,7.37-.41,0-.82,0-1.23.21-24.57,3.28-27.44.82-27.64-23.55-.21-26-.41-52-.82-77.8,0-10.24-.61-20.06-1.02-30.1-.41-7.17,3.28-10.85,10.03-11.26,5.32-.41,10.65-.41,15.97-.82,9.42-.82,14.95,3.28,18.63,11.87,7.78,18.02,14.74,36.24,21.29,54.87,1.84,4.71,2.46,10.44,7.78,15.15,6.55-15.36,13.31-30.51,19.66-45.66,2.66-6.55,5.32-13.1,8.39-19.65,2.46-6.14,3.89-13.51,11.47-15.36,10.03-2.05,20.27-1.64,29.89,1.43,5.12,1.64,4.3,6.96,4.3,11.26-.41,16.38-.61,32.55-1.23,48.93-.82,21.09-1.43,41.97,0,63.06.21,3.28.21,6.76-.41,10.03-.61,2.05-1.43,4.71-3.28,6.14-3.28,3.28-26.82,2.86-30.51-.21-3.48-2.87-3.07-6.96-2.66-10.65.82-6.14,0-12.29,1.23-18.43,1.23-5.94.41-12.08.41-18.02-5.32-1.43-5.32,2.66-6.14,4.71-6.14,12.08-11.46,24.36-17.61,36.24-6.55,12.08-20.88,11.87-27.03-.21-5.32-10.65-9.62-21.91-14.33-32.96-1.23-2.46-1.84-5.12-5.94-7.58Z"/>
    <path d="m865.18,319.36c3.07-1.64,3.89-4.3,3.28-7.17,0-13.1,0-25.18-1.84-39.92,0-17.81.61-17.81,13.51-18.84,8.4,0,13.31-.61,20.88.21,7.37.82,9.21,6.55,8.6,13.51-1.64,36.85-2.87,71.46-2.87,116.7,0,10.65-1.03,12.29-11.47,13.92-22.73,0-21.29,2.87-30.71-13.1-9.01-14.33-19.45-27.03-27.23-41.77-1.43-2.66-3.68-4.91-6.96-3.89-3.07,1.02-3.89,3.89-3.69,6.96.21,11.87.61,23.75,1.02,36.03.41,14.13-1.84,16.58-16.17,16.79-23.95.41-24.98.41-24.57-23.75.61-71.86.2-37.06-1.02-105.03-.61-12.49,3.28-15.97,15.76-16.79q20.68,0,33.17,19.65c6.35,14.54,15.56,27.64,23.95,40.74,1.84,2.46,3.07,5.12,6.35,5.73Z"/>
    <path d="m965.7,400.43c-14.13,0-27.44-3.68-39.72-10.44-12.49-6.96-12.9-12.49-3.28-23.14,1.64-1.84,2.87-3.68,4.71-5.53,7.98-9.21,8.19-9.42,18.84-3.07,4.51,2.66,8.8,5.32,14.33,6.14,5.73.82,10.85.41,12.9-5.94,1.64-5.53-2.05-8.6-6.55-11.06-10.65-6.35-21.91-11.67-32.35-18.43-20.88-13.72-22.11-57.33,7.58-70.84,21.09-9.62,41.97-7.17,61.63,4.91,7.78,5.12,8.19,7.78,3.07,15.15-2.87,3.89-6.14,7.58-9.01,11.26-4.71,6.14-9.42,8.39-17.2,4.3-4.71-2.25-12.49-5.73-15.36.82-2.87,6.55,5.12,9.01,9.83,11.87,7.98,4.1,15.76,8.6,23.34,13.92,16.58,11.26,20.47,28.46,15.56,48.32-4.71,18.02-19.04,29.89-38.28,31.53-3.28.41-6.76.2-10.03.2Z"/>
    <g>
      <path class="cls-2" d="m689.8,184.76c-9.23-5.95-11.76-19.29-10.54-29.58,1.17-9.89,3.25-19.68,6.2-29.21,1.36-4.37,2.91-8.71,5.26-12.68,2.81-4.75,6.69-8.84,10.54-12.9,7.64-8.05,15.28-16.1,22.92-24.15,7.06,9.52,11.6,20.63,13.11,32.03,6.89-12.31,14.31-24.34,22.26-36.07,3.59-5.29,7.32-10.57,12.09-14.95,5.02-4.61,11.08-8.13,17.31-11.22,16.12-8.01,33.6-13.39,50.98-18.74-12.24,8.38-20.05,21.52-23.81,35.33-1.69,6.21-2.64,12.74-1.4,19.11,1.34,6.89,5.13,13.16,8.86,19.27,2.62,4.29,5.23,8.58,7.85,12.87.37.61.85,1.29,1.59,1.39.73.09,1.36-.43,1.86-.93,12.08-12.04,16.66-30.27,11.66-46.38,5.98,2.74,9.59,8.54,12.64,14.08,15.61,28.33,26.51,60.25,21.65,91.4-1.85,11.85-7.51,24.85-19.71,28.39"/>
      <path class="cls-3" d="m707.63,172.77c.43-4.16-1.58-12.42-1.15-16.57.36-3.47.73-7,2.16-10.2,1.89-4.23,5.48-7.55,8.99-10.74.71-.65,1.47-1.32,2.45-1.52.72-.15,1.48-.02,2.21.15,4.75,1.14,8.94,4.29,11.17,8.39.99,1.82,2.02,4.12,4.18,4.37,1.39.16,2.64-.67,3.69-1.51,10.89-8.63,16.35-21.64,22.53-33.7,6.19-12.05,14.41-24.4,27.79-29.18-3.37,11.48-1.05,24.43,6.18,34.46,2.33,3.23,5.12,6.15,7.91,9.06,5.28,5.52,11.04,11.32,18.67,13.14,5.98,1.43,12.59.05,17.23-3.61,4.65-3.65,7.21-9.49,6.69-15.22.41,11.02,5.3,21.5,7.8,32.32s2.05,23.38-6.33,30.96"/>
      <g>
        <path class="cls-5" d="m761.45,154.62s-71.54,9.4-74.4,47.49c0,0-18.39,35.63,26.26,75.32,0,0,57.99,35.88,113.65,6.17,55.66-29.71,39.88-70.76,39.88-70.76,0,0-21.42-65.66-105.39-58.23Z"/>
        <path d="m761.45,150.12c-8.78,1.16-17.49,3.18-25.96,5.73-14.9,4.48-30.55,10.92-41.6,22.25-6.43,6.59-10.61,14.78-11.34,24.01l.61-2.27c-1.15,2.24-1.97,4.73-2.6,7.16-1.49,5.68-2.03,11.68-1.65,17.54,1.4,21.65,14.13,40.45,29.75,54.75,2.77,2.53,5.96,4.11,9.32,5.75,6.72,3.3,13.72,6.1,20.86,8.36,21.13,6.71,44.04,8.69,65.73,3.5,12.86-3.08,25.08-8.78,35.98-16.24,8.73-5.98,16.61-13.15,22.62-21.91,7.37-10.76,11.32-24.1,10-37.16-.4-3.98-1.13-7.9-2.6-11.62-2.79-7.05-6.56-13.68-11.04-19.79-7.89-10.73-17.76-19.87-29.28-26.6-15.85-9.25-34.09-13.54-52.35-14.01-5.49-.14-10.98.06-16.44.54-2.34.2-4.62,1.92-4.5,4.5.1,2.26,1.99,4.72,4.5,4.5,6.86-.6,13.76-.77,20.63-.37,1.58.09,3.15.21,4.73.37.71.07,1.43.15,2.14.23.38.04.76.09,1.14.14.16.02.32.04.48.06.63.07-1.14-.16-.07,0,2.84.41,5.66.9,8.46,1.52,5.23,1.16,10.38,2.71,15.36,4.69.54.22,1.08.46,1.63.66-1.25-.47-.26-.11.03.02.32.14.65.28.97.43,1.11.5,2.21,1.02,3.31,1.56,2.1,1.04,4.17,2.17,6.19,3.37,1.89,1.13,3.74,2.32,5.54,3.58.88.62,1.76,1.26,2.62,1.91.13.1.93.71.27.2s.1.08.26.2c.41.32.82.65,1.22.98,3.06,2.5,5.96,5.2,8.68,8.07,1.25,1.32,2.46,2.68,3.62,4.07.56.66,1.1,1.33,1.64,2.01.18.22.98,1.25.43.54s-.05-.06.08.11c.14.19.28.37.42.56,1.79,2.39,3.47,4.87,5.02,7.41,1.26,2.07,2.44,4.19,3.53,6.36.43.85.84,1.71,1.24,2.58.17.37.33.74.5,1.11.07.16.14.31.2.47.33.75-.53-1.27-.23-.54.46,1.14.92,2.28,1.29,3.45.46,1.48.8,3,1.07,4.52.09.53.17,1.07.25,1.6-.22-1.39-.11-.83-.03-.16.04.32.07.64.1.95.14,1.41.21,2.83.22,4.24.01,1.62-.05,3.24-.19,4.86-.04.4-.08.8-.12,1.2-.02.22-.05.44-.08.66-.1.9.18-1.14.03-.24s-.29,1.84-.48,2.75c-.4,1.96-.91,3.9-1.54,5.81-.32.98-.67,1.96-1.05,2.92-.1.26-.21.51-.31.77-.17.45.25-.58.22-.52-.08.14-.13.3-.19.44-.23.52-.46,1.04-.71,1.56-1.04,2.19-2.22,4.31-3.53,6.35-.7,1.1-1.44,2.18-2.21,3.23-.2.27-.4.54-.6.81-.62.83.39-.48-.1.13-.44.54-.87,1.09-1.32,1.63-1.93,2.29-4.01,4.46-6.2,6.5-1.19,1.11-2.42,2.19-3.67,3.23-.61.5-1.22,1-1.84,1.49-.15.11-.29.23-.44.34.69-.55.17-.13.02-.02-.4.3-.81.61-1.22.91-6.37,4.68-13.28,8.73-20.5,11.95-.47.21-.95.42-1.43.62.63-.27-.58.24-.76.31-.95.38-1.9.75-2.85,1.1-1.88.69-3.78,1.33-5.69,1.9-3.7,1.11-7.47,2.01-11.28,2.68-.86.15-1.73.29-2.59.43-.26.04-.53.08-.79.12-.07.01-.73.1-.19.03s-.12.02-.19.02c-.33.04-.66.08-.99.12-1.82.21-3.65.38-5.48.5-3.56.23-7.12.29-10.69.17-3.36-.11-6.71-.36-10.04-.74-.41-.05-.83-.1-1.24-.15-.18-.02-.35-.05-.53-.07,1.03.13.37.05.14.02-.81-.12-1.62-.23-2.43-.36-1.58-.25-3.16-.53-4.73-.84-5.76-1.13-11.45-2.65-17.03-4.49-2.41-.8-4.81-1.66-7.18-2.58-1.07-.42-2.14-.85-3.2-1.29-.64-.26-.25-.13.21.09-.24-.11-.49-.21-.74-.32-.51-.22-1.02-.44-1.52-.67-2.89-1.28-5.73-2.66-8.52-4.16-.76-.41-1.52-.83-2.27-1.27-.19-.11-.38-.24-.58-.34-.6-.32.65.64.17.09-1.46-1.65-3.31-3.06-4.88-4.62s-2.93-3.01-4.34-4.57c-1.27-1.42-2.5-2.87-3.7-4.35-.17-.21-.34-.43-.51-.64-.03-.04-.44-.56-.15-.18.33.42-.19-.24-.26-.34-.12-.16-.24-.32-.36-.48-.54-.73-1.08-1.46-1.6-2.21-1.94-2.76-3.72-5.63-5.31-8.61-.72-1.36-1.41-2.74-2.04-4.15-.15-.34-.3-.68-.45-1.02-.06-.14-.14-.29-.19-.43.04.11.39.95.09.21-.27-.66-.53-1.33-.78-2-.93-2.5-1.71-5.05-2.32-7.65-.28-1.19-.52-2.39-.72-3.6-.09-.54-.16-1.08-.25-1.62-.09-.57.12,1.04.06.46-.01-.12-.03-.24-.05-.36-.04-.32-.07-.64-.11-.96-.4-3.9-.39-7.85.06-11.75.02-.21.06-.42.08-.63-.04.44-.17,1.16-.05.4.06-.4.12-.79.19-1.19.12-.74.27-1.47.42-2.2.27-1.23.58-2.45.95-3.66.27-.88.57-1.74.9-2.6.06-.15.12-.29.18-.44.32-.83-.5,1.13-.25.59.09-.18.17-.37.25-.55.04-.08.08-.16.12-.24.41-.9.54-1.57.64-2.52.03-.27.05-.54.08-.81.01-.12.03-.23.04-.35.06-.63-.04.42-.07.51.29-1,.36-2.1.62-3.12s.57-2.01.93-2.99c.09-.24.19-.48.28-.73.33-.87-.38.84-.07.15.21-.47.42-.94.65-1.4.46-.93.96-1.83,1.5-2.71s1.14-1.74,1.75-2.58c.07-.09.14-.18.2-.27.31-.44-.64.8-.29.38.17-.2.33-.41.49-.62.33-.41.67-.81,1.02-1.21,1.42-1.61,2.96-3.12,4.58-4.52.38-.33.77-.66,1.16-.98.21-.17.43-.35.64-.52.09-.07.19-.15.28-.22.57-.45-.02.06-.26.2.94-.56,1.8-1.34,2.7-1.96,3.71-2.55,7.66-4.75,11.73-6.69,1.03-.49,2.07-.97,3.12-1.43.26-.11.52-.23.78-.34.17-.07,1.12-.48.36-.16s.08-.03.25-.1c.3-.12.6-.25.9-.37,2.07-.84,4.16-1.62,6.27-2.36,3.9-1.36,7.85-2.57,11.84-3.63,5.62-1.5,11.31-2.76,17.05-3.71.61-.1,1.22-.2,1.83-.29.93-.14.75-.1-.49.06,2.32-.31,4.62-1.85,4.5-4.5-.1-2.17-2-4.83-4.5-4.5Z"/>
      </g>
      <path class="cls-4" d="m858.52,201.75c-1.42,1.29-.4,3.59-.89,5.39-.69,2.57-4.53,3.4-7.04,2.07-2.51-1.33-3.84-4.01-4.56-6.6s-1.01-5.32-2.23-7.76c-2.34-4.68-7.56-7.4-11.73-10.82-1.9-1.56-3.62-3.3-5.12-5.2-1.05-1.33-3.12-1.43-4.23-.18l-8.82,9.93c-.67.76-1.38,1.61-1.33,2.6.04.76.52,1.46.6,2.21.19,1.8-2.11,3.1-4,2.68s-3.26-1.98-4.17-3.59c-2.95-5.2-2.89-12.05-7.69-15.88-3.49-2.78-8.41-2.99-12.92-3.45-4.52-.46-9.58-1.67-11.83-5.39-.71-1.18-1.07-2.51-1.53-3.79-.41-1.14-1.66-1.94-2.91-1.73-4.35.75-7.47,5.65-11.8,7.55-5.27,2.31-12.35.08-16.91,3.45-1.96,1.45-3.04,3.67-4.21,5.73-2.32,4.09-5.49,8.04-10.08,9.77-2.56.96-5.44,1.19-7.84,2.44-2.19,1.14-3.79,3.04-5.33,4.89l-10.12,12.13c-.96,1.16-2.8,1.26-3.95.22-1.98-1.81-8.37-5.07-10.79-6.31-.79-4.99,1.71-9.74,4.59-13.93s6.83-7.62,10.83-10.91c3.96-3.26,8.04-6.45,12.61-8.94,5.88-3.2,12.43-5.16,18.93-7.1,12.12-3.62,24.5-7.28,37.31-7.06,6.13.1,12.24,1.1,18.37,1.2,2.9.05,5.81-.11,8.7.17,7.24.71,13.88,4.11,20.29,7.43,8.01,4.15,16.11,8.37,22.83,14.21,4.49,3.89,8.27,8.43,12.02,12.95,3.02,3.62,5.65,7.14,4.99,11.62Z"/>
      <path class="cls-1" d="m798.41,222.75s6.56,18.83,28.77,19.39c0,0,18.64,2.96,25.41-19.69"/>
      <path class="cls-1" d="m713.17,218.12s12.32,22.71,28.31,22.28c0,0,21.74,3.45,32.08-21.59"/>
      <line class="cls-1" x1="764.6" y1="235.17" x2="773" y2="242.43"/>
      <line class="cls-1" x1="741.02" y1="243.29" x2="740.1" y2="249.07"/>
      <line class="cls-1" x1="723.3" y1="234.55" x2="716.71" y2="239.43"/>
      <line class="cls-1" x1="805.89" y1="235.79" x2="801.73" y2="244.03"/>
      <line class="cls-1" x1="832.5" y1="244.46" x2="834.5" y2="252.19"/>
      <line class="cls-1" x1="847.64" y1="233.52" x2="852.52" y2="239.53"/>
    </g>
    <path d="m721.24,378.12c-6.96,0-11.26,0-15.15.21-8.39.21-14.74,2.66-18.22,12.49,0,10.03-2.86,7.37-13.1,7.98-6.96,0-26,1.23-24.57-2.25,0-4.3,1.64-9.42,2.46-11.47,10.03-20.68,17.2-42.18,26-63.67,6.35-14.95,10.65-32.55,15.56-48.11,4.91-18.83,10.44-21.91,31.53-20.47,6.35.82,8.6,7.58,11.47,12.49,4.1,8.39,5.32,15.56,7.58,23.54,8.6,28.05,18.84,55.69,29.89,82.92,1.23,3.28,2.25,6.55,3.28,9.83,4.3,15.77,1.84,18.43-13.92,17.81-12.49.82-15.97,1.02-17.61-12.08-.82-5.94-4.71-7.98-9.83-8.39-6.14-.21-11.87-.82-15.36-.82Zm-4.1-30.51c8.39-.21,11.26-1.84,11.06-6.14.2-6.76-5.43-21.54-10.34-21.33-5.73-.21-10.34,13.96-10.13,21.95-.21,7.78,6.35,4.5,9.42,5.53Z"/>
  </g>
</svg>